<svg width="1920" height="1080" viewBox="0 0 1920 1080" fill="none" xmlns="http://www.w3.org/2000/svg">
<rect width="1920" height="1080" fill="white"/>
<rect x="1829" width="91" height="1080" fill="#24C5A5"/>
<rect x="1735" width="66" height="1080" fill="#32D1B2"/>
<rect x="1649" width="58" height="1080" fill="#40EAC8"/>
<rect x="1570" width="33" height="1080" fill="#4EFBD8"/>
<rect y="250" width="1920" height="123" fill="black"/>
<path d="M892.103 222H883.103V158.5H860.803V150.6H914.303V158.5H892.103V222ZM928.369 148.3C929.702 148.3 930.869 148.767 931.869 149.7C932.936 150.567 933.469 151.967 933.469 153.9C933.469 155.767 932.936 157.167 931.869 158.1C930.869 159.033 929.702 159.5 928.369 159.5C926.902 159.5 925.669 159.033 924.669 158.1C923.669 157.167 923.169 155.767 923.169 153.9C923.169 151.967 923.669 150.567 924.669 149.7C925.669 148.767 926.902 148.3 928.369 148.3ZM932.669 168.4V222H923.869V168.4H932.669ZM971.15 223C966.417 223 962.184 222.033 958.45 220.1C954.784 218.167 951.884 215.167 949.75 211.1C947.684 207.033 946.65 201.833 946.65 195.5C946.65 188.9 947.75 183.533 949.95 179.4C952.15 175.267 955.117 172.233 958.85 170.3C962.65 168.367 966.95 167.4 971.75 167.4C974.484 167.4 977.117 167.7 979.65 168.3C982.184 168.833 984.25 169.5 985.85 170.3L983.15 177.6C981.55 177 979.684 176.433 977.55 175.9C975.417 175.367 973.417 175.1 971.55 175.1C961.017 175.1 955.75 181.867 955.75 195.4C955.75 201.867 957.017 206.833 959.55 210.3C962.15 213.7 965.984 215.4 971.05 215.4C973.984 215.4 976.55 215.1 978.75 214.5C981.017 213.9 983.084 213.167 984.95 212.3V220.1C983.15 221.033 981.15 221.733 978.95 222.2C976.817 222.733 974.217 223 971.15 223ZM874.036 470H865.036V406.5H842.736V398.6H896.236V406.5H874.036V470ZM945.371 443.1C945.371 451.967 943.105 458.833 938.571 463.7C934.105 468.567 928.038 471 920.371 471C915.638 471 911.405 469.933 907.671 467.8C904.005 465.6 901.105 462.433 898.971 458.3C896.838 454.1 895.771 449.033 895.771 443.1C895.771 434.233 898.005 427.4 902.471 422.6C906.938 417.8 913.005 415.4 920.671 415.4C925.538 415.4 929.805 416.5 933.471 418.7C937.205 420.833 940.105 423.967 942.171 428.1C944.305 432.167 945.371 437.167 945.371 443.1ZM904.871 443.1C904.871 449.433 906.105 454.467 908.571 458.2C911.105 461.867 915.105 463.7 920.571 463.7C925.971 463.7 929.938 461.867 932.471 458.2C935.005 454.467 936.271 449.433 936.271 443.1C936.271 436.767 935.005 431.8 932.471 428.2C929.938 424.6 925.938 422.8 920.471 422.8C915.005 422.8 911.038 424.6 908.571 428.2C906.105 431.8 904.871 436.767 904.871 443.1ZM980.018 415.4C984.618 415.4 988.552 416.4 991.818 418.4C995.152 420.4 997.685 423.233 999.418 426.9C1001.22 430.5 1002.12 434.733 1002.12 439.6V444.9H965.418C965.552 450.967 967.085 455.6 970.018 458.8C973.018 461.933 977.185 463.5 982.518 463.5C985.918 463.5 988.918 463.2 991.518 462.6C994.185 461.933 996.918 461 999.718 459.8V467.5C996.985 468.7 994.285 469.567 991.618 470.1C988.952 470.7 985.785 471 982.118 471C977.052 471 972.552 469.967 968.618 467.9C964.752 465.833 961.718 462.767 959.518 458.7C957.385 454.567 956.318 449.533 956.318 443.6C956.318 437.733 957.285 432.7 959.218 428.5C961.218 424.3 963.985 421.067 967.518 418.8C971.118 416.533 975.285 415.4 980.018 415.4ZM979.918 422.6C975.718 422.6 972.385 423.967 969.918 426.7C967.518 429.367 966.085 433.1 965.618 437.9H992.918C992.852 433.367 991.785 429.7 989.718 426.9C987.652 424.033 984.385 422.6 979.918 422.6Z" fill="black"/>
<path d="M880.97 346H871.97V282.5H849.67V274.6H903.17V282.5H880.97V346ZM925.029 291.5C931.562 291.5 936.395 292.933 939.529 295.8C942.662 298.667 944.229 303.233 944.229 309.5V346H937.829L936.129 338.4H935.729C933.395 341.333 930.929 343.5 928.329 344.9C925.795 346.3 922.262 347 917.729 347C912.862 347 908.829 345.733 905.629 343.2C902.429 340.6 900.829 336.567 900.829 331.1C900.829 325.767 902.929 321.667 907.129 318.8C911.329 315.867 917.795 314.267 926.529 314L935.629 313.7V310.5C935.629 306.033 934.662 302.933 932.729 301.2C930.795 299.467 928.062 298.6 924.529 298.6C921.729 298.6 919.062 299.033 916.529 299.9C913.995 300.7 911.629 301.633 909.429 302.7L906.729 296.1C909.062 294.833 911.829 293.767 915.029 292.9C918.229 291.967 921.562 291.5 925.029 291.5ZM927.629 320.1C920.962 320.367 916.329 321.433 913.729 323.3C911.195 325.167 909.929 327.8 909.929 331.2C909.929 334.2 910.829 336.4 912.629 337.8C914.495 339.2 916.862 339.9 919.729 339.9C924.262 339.9 928.029 338.667 931.029 336.2C934.029 333.667 935.529 329.8 935.529 324.6V319.8L927.629 320.1ZM982.283 347C977.55 347 973.317 346.033 969.583 344.1C965.917 342.167 963.017 339.167 960.883 335.1C958.817 331.033 957.783 325.833 957.783 319.5C957.783 312.9 958.883 307.533 961.083 303.4C963.283 299.267 966.25 296.233 969.983 294.3C973.783 292.367 978.083 291.4 982.883 291.4C985.617 291.4 988.25 291.7 990.783 292.3C993.317 292.833 995.383 293.5 996.983 294.3L994.283 301.6C992.683 301 990.817 300.433 988.683 299.9C986.55 299.367 984.55 299.1 982.683 299.1C972.15 299.1 966.883 305.867 966.883 319.4C966.883 325.867 968.15 330.833 970.683 334.3C973.283 337.7 977.117 339.4 982.183 339.4C985.117 339.4 987.683 339.1 989.883 338.5C992.15 337.9 994.217 337.167 996.083 336.3V344.1C994.283 345.033 992.283 345.733 990.083 346.2C987.95 346.733 985.35 347 982.283 347Z" fill="white"/>
<rect x="105" width="23" height="1080" fill="black"/>
<rect x="105" y="250" width="23" height="123" fill="white"/>
<path d="M1569.5 250H1602.5V373H1569.5V250Z" fill="white"/>
<rect x="1649" y="250" width="58" height="123" fill="white"/>
<rect x="1735" y="250" width="66" height="123" fill="white"/>
<path d="M1829 250H1920V373H1829V250Z" fill="white"/>
</svg>


