<svg width="1920" height="1080" viewBox="0 0 1920 1080" fill="none" xmlns="http://www.w3.org/2000/svg">
<g clip-path="url(#clip0)">
<rect width="1920" height="1080" fill="white"/>
<rect x="1920" y="989" width="91" height="1920" transform="rotate(90 1920 989)" fill="#24C5A5"/>
<rect x="1920" y="895" width="66" height="1920" transform="rotate(90 1920 895)" fill="#32D1B2"/>
<rect x="1920" y="796" width="58" height="1920" transform="rotate(90 1920 796)" fill="#40EAC8"/>
<rect x="1920" y="719" width="30" height="1920" transform="rotate(90 1920 719)" fill="#4EFBD8"/>
<rect x="-75" y="250" width="1995" height="123" fill="black"/>
<path d="M928.103 222H919.103V158.5H896.803V150.6H950.303V158.5H928.103V222ZM964.369 148.3C965.702 148.3 966.869 148.767 967.869 149.7C968.936 150.567 969.469 151.967 969.469 153.9C969.469 155.767 968.936 157.167 967.869 158.1C966.869 159.033 965.702 159.5 964.369 159.5C962.902 159.5 961.669 159.033 960.669 158.1C959.669 157.167 959.169 155.767 959.169 153.9C959.169 151.967 959.669 150.567 960.669 149.7C961.669 148.767 962.902 148.3 964.369 148.3ZM968.669 168.4V222H959.869V168.4H968.669ZM1007.15 223C1002.42 223 998.184 222.033 994.45 220.1C990.784 218.167 987.884 215.167 985.75 211.1C983.684 207.033 982.65 201.833 982.65 195.5C982.65 188.9 983.75 183.533 985.95 179.4C988.15 175.267 991.117 172.233 994.85 170.3C998.65 168.367 1002.95 167.4 1007.75 167.4C1010.48 167.4 1013.12 167.7 1015.65 168.3C1018.18 168.833 1020.25 169.5 1021.85 170.3L1019.15 177.6C1017.55 177 1015.68 176.433 1013.55 175.9C1011.42 175.367 1009.42 175.1 1007.55 175.1C997.017 175.1 991.75 181.867 991.75 195.4C991.75 201.867 993.017 206.833 995.55 210.3C998.15 213.7 1001.98 215.4 1007.05 215.4C1009.98 215.4 1012.55 215.1 1014.75 214.5C1017.02 213.9 1019.08 213.167 1020.95 212.3V220.1C1019.15 221.033 1017.15 221.733 1014.95 222.2C1012.82 222.733 1010.22 223 1007.15 223ZM910.036 470H901.036V406.5H878.736V398.6H932.236V406.5H910.036V470ZM981.371 443.1C981.371 451.967 979.105 458.833 974.571 463.7C970.105 468.567 964.038 471 956.371 471C951.638 471 947.405 469.933 943.671 467.8C940.005 465.6 937.105 462.433 934.971 458.3C932.838 454.1 931.771 449.033 931.771 443.1C931.771 434.233 934.005 427.4 938.471 422.6C942.938 417.8 949.005 415.4 956.671 415.4C961.538 415.4 965.805 416.5 969.471 418.7C973.205 420.833 976.105 423.967 978.171 428.1C980.305 432.167 981.371 437.167 981.371 443.1ZM940.871 443.1C940.871 449.433 942.105 454.467 944.571 458.2C947.105 461.867 951.105 463.7 956.571 463.7C961.971 463.7 965.938 461.867 968.471 458.2C971.005 454.467 972.271 449.433 972.271 443.1C972.271 436.767 971.005 431.8 968.471 428.2C965.938 424.6 961.938 422.8 956.471 422.8C951.005 422.8 947.038 424.6 944.571 428.2C942.105 431.8 940.871 436.767 940.871 443.1ZM1016.02 415.4C1020.62 415.4 1024.55 416.4 1027.82 418.4C1031.15 420.4 1033.69 423.233 1035.42 426.9C1037.22 430.5 1038.12 434.733 1038.12 439.6V444.9H1001.42C1001.55 450.967 1003.09 455.6 1006.02 458.8C1009.02 461.933 1013.19 463.5 1018.52 463.5C1021.92 463.5 1024.92 463.2 1027.52 462.6C1030.19 461.933 1032.92 461 1035.72 459.8V467.5C1032.99 468.7 1030.29 469.567 1027.62 470.1C1024.95 470.7 1021.79 471 1018.12 471C1013.05 471 1008.55 469.967 1004.62 467.9C1000.75 465.833 997.718 462.767 995.518 458.7C993.385 454.567 992.318 449.533 992.318 443.6C992.318 437.733 993.285 432.7 995.218 428.5C997.218 424.3 999.985 421.067 1003.52 418.8C1007.12 416.533 1011.29 415.4 1016.02 415.4ZM1015.92 422.6C1011.72 422.6 1008.39 423.967 1005.92 426.7C1003.52 429.367 1002.09 433.1 1001.62 437.9H1028.92C1028.85 433.367 1027.79 429.7 1025.72 426.9C1023.65 424.033 1020.39 422.6 1015.92 422.6Z" fill="black"/>
<path d="M916.97 346H907.97V282.5H885.67V274.6H939.17V282.5H916.97V346ZM961.029 291.5C967.562 291.5 972.395 292.933 975.529 295.8C978.662 298.667 980.229 303.233 980.229 309.5V346H973.829L972.129 338.4H971.729C969.395 341.333 966.929 343.5 964.329 344.9C961.795 346.3 958.262 347 953.729 347C948.862 347 944.829 345.733 941.629 343.2C938.429 340.6 936.829 336.567 936.829 331.1C936.829 325.767 938.929 321.667 943.129 318.8C947.329 315.867 953.795 314.267 962.529 314L971.629 313.7V310.5C971.629 306.033 970.662 302.933 968.729 301.2C966.795 299.467 964.062 298.6 960.529 298.6C957.729 298.6 955.062 299.033 952.529 299.9C949.995 300.7 947.629 301.633 945.429 302.7L942.729 296.1C945.062 294.833 947.829 293.767 951.029 292.9C954.229 291.967 957.562 291.5 961.029 291.5ZM963.629 320.1C956.962 320.367 952.329 321.433 949.729 323.3C947.195 325.167 945.929 327.8 945.929 331.2C945.929 334.2 946.829 336.4 948.629 337.8C950.495 339.2 952.862 339.9 955.729 339.9C960.262 339.9 964.029 338.667 967.029 336.2C970.029 333.667 971.529 329.8 971.529 324.6V319.8L963.629 320.1ZM1018.28 347C1013.55 347 1009.32 346.033 1005.58 344.1C1001.92 342.167 999.017 339.167 996.883 335.1C994.817 331.033 993.783 325.833 993.783 319.5C993.783 312.9 994.883 307.533 997.083 303.4C999.283 299.267 1002.25 296.233 1005.98 294.3C1009.78 292.367 1014.08 291.4 1018.88 291.4C1021.62 291.4 1024.25 291.7 1026.78 292.3C1029.32 292.833 1031.38 293.5 1032.98 294.3L1030.28 301.6C1028.68 301 1026.82 300.433 1024.68 299.9C1022.55 299.367 1020.55 299.1 1018.68 299.1C1008.15 299.1 1002.88 305.867 1002.88 319.4C1002.88 325.867 1004.15 330.833 1006.68 334.3C1009.28 337.7 1013.12 339.4 1018.18 339.4C1021.12 339.4 1023.68 339.1 1025.88 338.5C1028.15 337.9 1030.22 337.167 1032.08 336.3V344.1C1030.28 345.033 1028.28 345.733 1026.08 346.2C1023.95 346.733 1021.35 347 1018.28 347Z" fill="white"/>
<rect x="105" width="23" height="1024" fill="black"/>
<rect x="178" y="49" width="23" height="1024" fill="#40EAC8"/>
<rect x="251" y="108" width="23" height="1024" fill="black"/>
<rect x="105" y="250" width="23" height="123" fill="white"/>
<rect x="178" y="250" width="23" height="123" fill="white"/>
<rect x="251" y="250" width="23" height="123" fill="white"/>
<rect x="105" y="719" width="23" height="30" fill="white"/>
<rect x="105" y="796" width="23" height="58" fill="white"/>
<rect x="105" y="895" width="23" height="66" fill="white"/>
<rect x="105" y="987" width="23" height="99" fill="white"/>
<rect x="178" y="719" width="23" height="30" fill="white"/>
<rect x="178" y="796" width="23" height="58" fill="white"/>
<rect x="178" y="895" width="23" height="66" fill="white"/>
<rect x="178" y="989" width="23" height="91" fill="white"/>
<rect x="251" y="719" width="23" height="30" fill="white"/>
<rect x="251" y="796" width="23" height="58" fill="white"/>
<rect x="251" y="895" width="23" height="66" fill="white"/>
<rect x="251" y="987" width="23" height="99" fill="white"/>
</g>
<defs>
<clipPath id="clip0">
<rect width="1920" height="1080" fill="white"/>
</clipPath>
</defs>
</svg>
