<svg width="1920" height="1080" viewBox="0 0 1920 1080" fill="none" xmlns="http://www.w3.org/2000/svg">
<g clip-path="url(#clip0)">
<rect width="1920" height="1080" fill="white"/>
<rect x="0.5" y="248.5" width="1919" height="122" fill="black"/>
<rect x="0.5" y="248.5" width="1919" height="122" stroke="black"/>
<rect x="0.5" y="248.5" width="1919" height="122" stroke="url(#paint0_linear)"/>
<path d="M897.33 217H857.43V145.6H897.33V153.5H866.43V175.8H895.53V183.6H866.43V209.1H897.33V217ZM937.597 162.4C943.997 162.4 948.83 163.967 952.097 167.1C955.364 170.167 956.997 175.167 956.997 182.1V217H948.297V182.7C948.297 174.1 944.297 169.8 936.297 169.8C930.364 169.8 926.264 171.467 923.997 174.8C921.73 178.133 920.597 182.933 920.597 189.2V217H911.797V163.4H918.897L920.197 170.7H920.697C922.43 167.9 924.83 165.833 927.897 164.5C930.964 163.1 934.197 162.4 937.597 162.4ZM991.513 210.8C992.847 210.8 994.213 210.7 995.613 210.5C997.013 210.233 998.147 209.967 999.013 209.7V216.4C998.08 216.867 996.747 217.233 995.013 217.5C993.28 217.833 991.613 218 990.013 218C987.213 218 984.613 217.533 982.213 216.6C979.88 215.6 977.98 213.9 976.513 211.5C975.047 209.1 974.313 205.733 974.313 201.4V170.2H966.713V166L974.413 162.5L977.913 151.1H983.113V163.4H998.613V170.2H983.113V201.2C983.113 204.467 983.88 206.9 985.413 208.5C987.013 210.033 989.047 210.8 991.513 210.8ZM1030.45 162.4C1035.05 162.4 1038.98 163.4 1042.25 165.4C1045.58 167.4 1048.11 170.233 1049.85 173.9C1051.65 177.5 1052.55 181.733 1052.55 186.6V191.9H1015.85C1015.98 197.967 1017.51 202.6 1020.45 205.8C1023.45 208.933 1027.61 210.5 1032.95 210.5C1036.35 210.5 1039.35 210.2 1041.95 209.6C1044.61 208.933 1047.35 208 1050.15 206.8V214.5C1047.41 215.7 1044.71 216.567 1042.05 217.1C1039.38 217.7 1036.21 218 1032.55 218C1027.48 218 1022.98 216.967 1019.05 214.9C1015.18 212.833 1012.15 209.767 1009.95 205.7C1007.81 201.567 1006.75 196.533 1006.75 190.6C1006.75 184.733 1007.71 179.7 1009.65 175.5C1011.65 171.3 1014.41 168.067 1017.95 165.8C1021.55 163.533 1025.71 162.4 1030.45 162.4ZM1030.35 169.6C1026.15 169.6 1022.81 170.967 1020.35 173.7C1017.95 176.367 1016.51 180.1 1016.05 184.9H1043.35C1043.28 180.367 1042.21 176.7 1040.15 173.9C1038.08 171.033 1034.81 169.6 1030.35 169.6ZM1091.19 162.4C1092.19 162.4 1093.26 162.467 1094.39 162.6C1095.59 162.667 1096.62 162.8 1097.49 163L1096.39 171.1C1095.52 170.9 1094.56 170.733 1093.49 170.6C1092.49 170.467 1091.52 170.4 1090.59 170.4C1087.86 170.4 1085.29 171.167 1082.89 172.7C1080.49 174.167 1078.56 176.267 1077.09 179C1075.69 181.667 1074.99 184.8 1074.99 188.4V217H1066.19V163.4H1073.39L1074.39 173.2H1074.79C1076.52 170.267 1078.76 167.733 1081.49 165.6C1084.22 163.467 1087.46 162.4 1091.19 162.4ZM936.933 465H927.933V431.7H891.333V465H882.333V393.6H891.333V423.8H927.933V393.6H936.933V465ZM975.954 410.4C980.554 410.4 984.487 411.4 987.754 413.4C991.087 415.4 993.621 418.233 995.354 421.9C997.154 425.5 998.054 429.733 998.054 434.6V439.9H961.354C961.487 445.967 963.021 450.6 965.954 453.8C968.954 456.933 973.121 458.5 978.454 458.5C981.854 458.5 984.854 458.2 987.454 457.6C990.121 456.933 992.854 456 995.654 454.8V462.5C992.921 463.7 990.221 464.567 987.554 465.1C984.887 465.7 981.721 466 978.054 466C972.987 466 968.487 464.967 964.554 462.9C960.687 460.833 957.654 457.767 955.454 453.7C953.321 449.567 952.254 444.533 952.254 438.6C952.254 432.733 953.221 427.7 955.154 423.5C957.154 419.3 959.921 416.067 963.454 413.8C967.054 411.533 971.221 410.4 975.954 410.4ZM975.854 417.6C971.654 417.6 968.321 418.967 965.854 421.7C963.454 424.367 962.021 428.1 961.554 432.9H988.854C988.787 428.367 987.721 424.7 985.654 421.9C983.587 419.033 980.321 417.6 975.854 417.6ZM1036.7 410.4C1037.7 410.4 1038.77 410.467 1039.9 410.6C1041.1 410.667 1042.13 410.8 1043 411L1041.9 419.1C1041.03 418.9 1040.07 418.733 1039 418.6C1038 418.467 1037.03 418.4 1036.1 418.4C1033.37 418.4 1030.8 419.167 1028.4 420.7C1026 422.167 1024.07 424.267 1022.6 427C1021.2 429.667 1020.5 432.8 1020.5 436.4V465H1011.7V411.4H1018.9L1019.9 421.2H1020.3C1022.03 418.267 1024.27 415.733 1027 413.6C1029.73 411.467 1032.97 410.4 1036.7 410.4ZM1071.75 410.4C1076.35 410.4 1080.29 411.4 1083.55 413.4C1086.89 415.4 1089.42 418.233 1091.15 421.9C1092.95 425.5 1093.85 429.733 1093.85 434.6V439.9H1057.15C1057.29 445.967 1058.82 450.6 1061.75 453.8C1064.75 456.933 1068.92 458.5 1074.25 458.5C1077.65 458.5 1080.65 458.2 1083.25 457.6C1085.92 456.933 1088.65 456 1091.45 454.8V462.5C1088.72 463.7 1086.02 464.567 1083.35 465.1C1080.69 465.7 1077.52 466 1073.85 466C1068.79 466 1064.29 464.967 1060.35 462.9C1056.49 460.833 1053.45 457.767 1051.25 453.7C1049.12 449.567 1048.05 444.533 1048.05 438.6C1048.05 432.733 1049.02 427.7 1050.95 423.5C1052.95 419.3 1055.72 416.067 1059.25 413.8C1062.85 411.533 1067.02 410.4 1071.75 410.4ZM1071.65 417.6C1067.45 417.6 1064.12 418.967 1061.65 421.7C1059.25 424.367 1057.82 428.1 1057.35 432.9H1084.65C1084.59 428.367 1083.52 424.7 1081.45 421.9C1079.39 419.033 1076.12 417.6 1071.65 417.6Z" fill="black"/>
<path d="M1021.87 341H996.066V335.8L1004.47 333.9V276.8L996.066 274.8V269.6H1021.87V274.8L1013.47 276.8V333.9L1021.87 335.8V341ZM1092.85 304.6C1092.85 316.667 1089.55 325.767 1082.95 331.9C1076.42 337.967 1067.29 341 1055.55 341H1035.65V269.6H1057.65C1064.85 269.6 1071.09 270.933 1076.35 273.6C1081.62 276.267 1085.69 280.2 1088.55 285.4C1091.42 290.533 1092.85 296.933 1092.85 304.6ZM1083.35 304.9C1083.35 295.367 1080.99 288.4 1076.25 284C1071.59 279.533 1064.95 277.3 1056.35 277.3H1044.65V333.3H1054.35C1073.69 333.3 1083.35 323.833 1083.35 304.9Z" fill="white"/>
<rect x="-1" y="632" width="190" height="448" fill="#24C5A5"/>
<rect x="68" y="550" width="179" height="232" fill="#32D1B2"/>
<rect x="-21" y="847" width="115" height="138" fill="#32D1B2"/>
<rect x="54" y="329" width="114" height="170" fill="#40EAC8"/>
<rect x="219" y="187" width="44" height="161" fill="#4EFBD8"/>
<rect x="263" y="851" width="96" height="103" fill="#32D1B2"/>
<rect x="310" y="653" width="30" height="129" fill="#3CE7C5"/>
<rect x="54" y="329" width="114" height="80" fill="white"/>
<rect x="219" y="286" width="44" height="62" fill="white"/>
</g>
<defs>
<linearGradient id="paint0_linear" x1="960" y1="248" x2="960" y2="371" gradientUnits="userSpaceOnUse">
<stop stop-color="white"/>
<stop offset="1" stop-color="white" stop-opacity="0"/>
</linearGradient>
<clipPath id="clip0">
<rect width="1920" height="1080" fill="white"/>
</clipPath>
</defs>
</svg>
