<svg width="1920" height="1080" viewBox="0 0 1920 1080" fill="none" xmlns="http://www.w3.org/2000/svg">
<g clip-path="url(#clip0)">
<rect width="1920" height="1080" fill="white"/>
<rect y="248" width="2390" height="123" fill="black"/>
<path d="M831.606 217L808.106 154.4H807.706C807.906 156.467 808.073 159.267 808.206 162.8C808.34 166.267 808.406 169.9 808.406 173.7V217H800.106V145.6H813.406L835.406 204.1H835.806L858.206 145.6H871.406V217H862.506V173.1C862.506 169.633 862.573 166.2 862.706 162.8C862.906 159.4 863.073 156.633 863.206 154.5H862.806L839.006 217H831.606ZM909.929 162.5C916.462 162.5 921.296 163.933 924.429 166.8C927.562 169.667 929.129 174.233 929.129 180.5V217H922.729L921.029 209.4H920.629C918.296 212.333 915.829 214.5 913.229 215.9C910.696 217.3 907.162 218 902.629 218C897.762 218 893.729 216.733 890.529 214.2C887.329 211.6 885.729 207.567 885.729 202.1C885.729 196.767 887.829 192.667 892.029 189.8C896.229 186.867 902.696 185.267 911.429 185L920.529 184.7V181.5C920.529 177.033 919.562 173.933 917.629 172.2C915.696 170.467 912.962 169.6 909.429 169.6C906.629 169.6 903.962 170.033 901.429 170.9C898.896 171.7 896.529 172.633 894.329 173.7L891.629 167.1C893.962 165.833 896.729 164.767 899.929 163.9C903.129 162.967 906.462 162.5 909.929 162.5ZM912.529 191.1C905.862 191.367 901.229 192.433 898.629 194.3C896.096 196.167 894.829 198.8 894.829 202.2C894.829 205.2 895.729 207.4 897.529 208.8C899.396 210.2 901.762 210.9 904.629 210.9C909.162 210.9 912.929 209.667 915.929 207.2C918.929 204.667 920.429 200.8 920.429 195.6V190.8L912.529 191.1ZM954.384 180.7C954.384 181.767 954.317 183.167 954.184 184.9C954.117 186.633 954.05 188.133 953.984 189.4H954.384C954.784 188.867 955.384 188.1 956.184 187.1C956.984 186.1 957.784 185.1 958.584 184.1C959.45 183.033 960.184 182.167 960.784 181.5L977.884 163.4H988.184L966.484 186.3L989.684 217H979.084L960.484 192L954.384 197.3V217H945.684V141H954.384V180.7ZM1019.8 162.4C1024.4 162.4 1028.33 163.4 1031.6 165.4C1034.93 167.4 1037.47 170.233 1039.2 173.9C1041 177.5 1041.9 181.733 1041.9 186.6V191.9H1005.2C1005.33 197.967 1006.87 202.6 1009.8 205.8C1012.8 208.933 1016.97 210.5 1022.3 210.5C1025.7 210.5 1028.7 210.2 1031.3 209.6C1033.97 208.933 1036.7 208 1039.5 206.8V214.5C1036.77 215.7 1034.07 216.567 1031.4 217.1C1028.73 217.7 1025.57 218 1021.9 218C1016.83 218 1012.33 216.967 1008.4 214.9C1004.53 212.833 1001.5 209.767 999.302 205.7C997.168 201.567 996.102 196.533 996.102 190.6C996.102 184.733 997.068 179.7 999.002 175.5C1001 171.3 1003.77 168.067 1007.3 165.8C1010.9 163.533 1015.07 162.4 1019.8 162.4ZM1019.7 169.6C1015.5 169.6 1012.17 170.967 1009.7 173.7C1007.3 176.367 1005.87 180.1 1005.4 184.9H1032.7C1032.63 180.367 1031.57 176.7 1029.5 173.9C1027.43 171.033 1024.17 169.6 1019.7 169.6ZM1021.87 465H996.066V459.8L1004.47 457.9V400.8L996.066 398.8V393.6H1021.87V398.8L1013.47 400.8V457.9L1021.87 459.8V465ZM1092.85 428.6C1092.85 440.667 1089.55 449.767 1082.95 455.9C1076.42 461.967 1067.29 465 1055.55 465H1035.65V393.6H1057.65C1064.85 393.6 1071.09 394.933 1076.35 397.6C1081.62 400.267 1085.69 404.2 1088.55 409.4C1091.42 414.533 1092.85 420.933 1092.85 428.6ZM1083.35 428.9C1083.35 419.367 1080.99 412.4 1076.25 408C1071.59 403.533 1064.95 401.3 1056.35 401.3H1044.65V457.3H1054.35C1073.69 457.3 1083.35 447.833 1083.35 428.9Z" fill="black"/>
<path d="M911.968 304.7L930.568 269.6H940.268L916.468 313.3V341H907.468V313.7L883.668 269.6H893.468L911.968 304.7ZM990.428 314.1C990.428 322.967 988.161 329.833 983.628 334.7C979.161 339.567 973.095 342 965.428 342C960.695 342 956.461 340.933 952.728 338.8C949.061 336.6 946.161 333.433 944.028 329.3C941.895 325.1 940.828 320.033 940.828 314.1C940.828 305.233 943.061 298.4 947.528 293.6C951.995 288.8 958.061 286.4 965.728 286.4C970.595 286.4 974.861 287.5 978.528 289.7C982.261 291.833 985.161 294.967 987.228 299.1C989.361 303.167 990.428 308.167 990.428 314.1ZM949.928 314.1C949.928 320.433 951.161 325.467 953.628 329.2C956.161 332.867 960.161 334.7 965.628 334.7C971.028 334.7 974.995 332.867 977.528 329.2C980.061 325.467 981.328 320.433 981.328 314.1C981.328 307.767 980.061 302.8 977.528 299.2C974.995 295.6 970.995 293.8 965.528 293.8C960.061 293.8 956.095 295.6 953.628 299.2C951.161 302.8 949.928 307.767 949.928 314.1ZM1049.18 287.4V341H1041.98L1040.68 333.9H1040.28C1038.54 336.7 1036.14 338.767 1033.08 340.1C1030.01 341.367 1026.74 342 1023.28 342C1016.81 342 1011.94 340.467 1008.68 337.4C1005.41 334.267 1003.78 329.3 1003.78 322.5V287.4H1012.68V321.9C1012.68 330.433 1016.64 334.7 1024.58 334.7C1030.51 334.7 1034.61 333.033 1036.88 329.7C1039.21 326.367 1040.38 321.567 1040.38 315.3V287.4H1049.18ZM1091.19 286.4C1092.19 286.4 1093.26 286.467 1094.39 286.6C1095.59 286.667 1096.62 286.8 1097.49 287L1096.39 295.1C1095.52 294.9 1094.56 294.733 1093.49 294.6C1092.49 294.467 1091.52 294.4 1090.59 294.4C1087.86 294.4 1085.29 295.167 1082.89 296.7C1080.49 298.167 1078.56 300.267 1077.09 303C1075.69 305.667 1074.99 308.8 1074.99 312.4V341H1066.19V287.4H1073.39L1074.39 297.2H1074.79C1076.52 294.267 1078.76 291.733 1081.49 289.6C1084.22 287.467 1087.46 286.4 1091.19 286.4Z" fill="white"/>
<rect x="1924.25" y="447.977" width="190" height="448" transform="rotate(179.419 1924.25 447.977)" fill="#24C5A5"/>
<rect x="1856.08" y="530.672" width="179" height="232" transform="rotate(179.419 1856.08 530.672)" fill="#32D1B2"/>
<rect x="1942.06" y="232.785" width="115" height="138" transform="rotate(179.419 1942.06 232.785)" fill="#32D1B2"/>
<rect x="1872.32" y="751.519" width="114" height="170" transform="rotate(179.419 1872.32 751.519)" fill="#40EAC8"/>
<rect x="1708.77" y="895.184" width="44" height="161" transform="rotate(179.419 1708.77 895.184)" fill="#4EFBD8"/>
<rect x="1658.04" y="231.664" width="96" height="103" transform="rotate(179.419 1658.04 231.664)" fill="#32D1B2"/>
<rect x="1491.31" y="437.993" width="30" height="129" transform="rotate(179.419 1491.31 437.993)" fill="#3CE7C5"/>
<rect x="1460" y="306" width="31" height="70" fill="white"/>
<rect x="1732" y="248" width="178" height="123" fill="white"/>
<rect x="1675" y="300" width="67" height="71" fill="white"/>
</g>
<defs>
<clipPath id="clip0">
<rect width="1920" height="1080" fill="white"/>
</clipPath>
</defs>
</svg>
