<svg width="1920" height="1080" viewBox="0 0 1920 1080" fill="none" xmlns="http://www.w3.org/2000/svg">
<rect width="1920" height="1080" fill="white"/>
<rect y="835" width="1920" height="86" fill="#40EAC8"/>
<rect x="556" y="124" width="11" height="840" fill="#3CE7C5"/>
<rect x="300" y="671" width="11" height="840" transform="rotate(-89.6698 300 671)" fill="#3CE7C5"/>
<rect x="300.045" y="374.16" width="11" height="840" transform="rotate(-89.6698 300.045 374.16)" fill="black"/>
<path d="M1392 119C1392 100.222 1407.22 85 1426 85H1733C1751.78 85 1767 100.222 1767 119V137C1767 155.778 1751.78 171 1733 171H1426C1407.22 171 1392 155.778 1392 137V119Z" fill="#3CE7C5"/>
<path d="M1392 241C1392 222.222 1407.22 207 1426 207H1733C1751.78 207 1767 222.222 1767 241V259C1767 277.778 1751.78 293 1733 293H1426C1407.22 293 1392 277.778 1392 259V241Z" fill="#3CE7C5"/>
<path d="M1392 373C1392 354.222 1407.22 339 1426 339H1733C1751.78 339 1767 354.222 1767 373V391C1767 409.778 1751.78 425 1733 425H1426C1407.22 425 1392 409.778 1392 391V373Z" fill="#3CE7C5"/>
<path d="M1397 528C1397 511.984 1409.98 499 1426 499H1733C1749.02 499 1762 511.984 1762 528V758C1762 774.016 1749.02 787 1733 787H1426C1409.98 787 1397 774.016 1397 758V528Z" fill="white" stroke="#3CE7C5" stroke-width="10"/>
<rect x="861" y="124" width="11" height="840" fill="black"/>
</svg>
